<svg   xmlns="http://www.w3.org/2000/svg"
  width="24"
  height="24"
  viewBox="0 0 24 24"
  fill="none"
  stroke="currentColor"
  stroke-width="2"
  stroke-linecap="round"
  stroke-linejoin="round">
<path d="M10 2H14C17.866 2 21 5.13401 21 9C21 12.866 17.866 16 14 16H10C6.13401 16 3 12.866 3 9C3 5.13401 6.13401 2 10 2Z" />
<path d="M11.158 21H12.8319M16.1663 20.7036C16.1663 20.7036 16.6649 20.6152 16.9819 20.5463C17.298 20.4776 17.7869 20.3514 17.7869 20.3514M7.83374 20.7036C7.83374 20.7036 7.33509 20.6152 7.01809 20.5463C6.70204 20.4776 6.21313 20.3514 6.21313 20.3514" />
</svg>
